<?xml version="1.0" encoding="UTF-8"?>
<!DOCTYPE svg PUBLIC "-//W3C//DTD SVG 1.1//EN" "http://www.w3.org/Graphics/SVG/1.1/DTD/svg11.dtd">
<svg xmlns="http://www.w3.org/2000/svg" version="1.1" width="350px" height="350px" style="shape-rendering:geometricPrecision; text-rendering:geometricPrecision; image-rendering:optimizeQuality; fill-rule:evenodd; clip-rule:evenodd" xmlns:xlink="http://www.w3.org/1999/xlink">
<g><path style="opacity:1" fill="#fefffe" d="M -0.5,-0.5 C 116.167,-0.5 232.833,-0.5 349.5,-0.5C 349.5,116.167 349.5,232.833 349.5,349.5C 232.833,349.5 116.167,349.5 -0.5,349.5C -0.5,232.833 -0.5,116.167 -0.5,-0.5 Z"/></g>
<g><path style="opacity:1" fill="#000000" d="M 156.5,12.5 C 159.518,12.3354 162.518,12.502 165.5,13C 176.877,22.4391 188.71,31.2724 201,39.5C 201.829,44.8643 201.663,50.1977 200.5,55.5C 165.482,92.2976 126.149,123.298 82.5,148.5C 79.807,146.927 78.9737,144.593 80,141.5C 87.9891,133.902 96.1558,126.402 104.5,119C 114.534,108.488 124.701,97.9883 135,87.5C 146.102,74.7437 156.768,61.7437 167,48.5C 169.259,44.4043 170.259,40.0709 170,35.5C 165.925,29.0269 161.592,22.6936 157,16.5C 156.51,15.2068 156.343,13.8734 156.5,12.5 Z"/></g>
<g><path style="opacity:1" fill="#000000" d="M 276.5,83.5 C 288.055,86.2867 297.722,92.1201 305.5,101C 306.929,104.258 306.762,107.424 305,110.5C 300.363,113.95 295.196,115.45 289.5,115C 285.797,111.475 281.797,108.308 277.5,105.5C 276.503,98.1968 276.169,90.8635 276.5,83.5 Z"/></g>
<g><path style="opacity:1" fill="#000000" d="M 201.5,110.5 C 205.106,110.211 208.606,110.544 212,111.5C 216.198,136.579 219.364,161.579 221.5,186.5C 226.256,185.256 230.09,182.59 233,178.5C 240.088,169.243 246.588,159.576 252.5,149.5C 251.52,148.019 250.353,146.685 249,145.5C 248.501,140.845 248.334,136.179 248.5,131.5C 250.857,131.337 253.19,131.503 255.5,132C 261.369,138.272 266.869,144.772 272,151.5C 273.419,163.112 272.419,174.446 269,185.5C 266.045,189.609 262.545,193.109 258.5,196C 252.278,200.223 245.611,203.556 238.5,206C 237.643,206.689 236.977,207.522 236.5,208.5C 244.067,233.508 251.567,258.175 259,282.5C 259.92,285.308 259.087,287.475 256.5,289C 246.981,290.714 238.648,288.38 231.5,282C 229.041,279.554 226.708,277.054 224.5,274.5C 215.753,259.212 209.587,242.879 206,225.5C 205.275,224.941 204.442,224.608 203.5,224.5C 198.217,225.992 192.884,226.825 187.5,227C 182.512,223.175 182.845,219.509 188.5,216C 193.058,215.391 197.225,213.891 201,211.5C 201.667,197.5 201.667,183.5 201,169.5C 200,165.167 199,160.833 198,156.5C 188.071,163.581 178.238,170.914 168.5,178.5C 172.576,180.235 174.076,183.235 173,187.5C 166.836,197.03 161.002,206.863 155.5,217C 155.957,217.414 156.291,217.914 156.5,218.5C 151.314,230.902 146.647,243.402 142.5,256C 142.957,256.414 143.291,256.914 143.5,257.5C 139.143,271.242 135.809,285.242 133.5,299.5C 129.099,301.408 126.266,304.741 125,309.5C 123.859,311.609 122.359,313.442 120.5,315C 115.167,315.667 109.833,315.667 104.5,315C 100.81,312.831 99.1429,309.664 99.5,305.5C 101.199,305.66 102.866,305.494 104.5,305C 110.216,298.729 114.216,291.562 116.5,283.5C 116.113,282.28 115.28,281.613 114,281.5C 98.1319,295.705 82.6319,310.205 67.5,325C 59.1178,325.803 50.7845,325.636 42.5,324.5C 41.5197,323.019 40.353,321.685 39,320.5C 38.5004,313.508 38.3337,306.508 38.5,299.5C 45.8231,299.005 52.8231,297.172 59.5,294C 74.1423,285.362 86.9756,274.528 98,261.5C 106.719,250.448 115.053,239.114 123,227.5C 124.683,217.784 127.183,208.284 130.5,199C 130.355,198.228 130.022,197.561 129.5,197C 127.5,196.333 125.5,196.333 123.5,197C 109.005,201.046 94.3383,204.212 79.5,206.5C 79.5,204.167 79.5,201.833 79.5,199.5C 93.491,196.892 106.824,192.392 119.5,186C 121.409,183.587 123.743,181.753 126.5,180.5C 127.301,177.867 128.967,176.033 131.5,175C 131.167,174.667 130.833,174.333 130.5,174C 132.716,167.188 135.049,160.354 137.5,153.5C 144.167,156.5 150.833,159.5 157.5,162.5C 166.157,157.096 173.657,150.429 180,142.5C 181.545,137.688 180.712,133.188 177.5,129C 178.5,128 179.5,127 180.5,126C 187.448,126.886 194.448,127.719 201.5,128.5C 201.5,122.5 201.5,116.5 201.5,110.5 Z"/></g>
<g><path style="opacity:1" fill="#fefffe" d="M 162.5,181.5 C 163.239,181.369 163.906,181.536 164.5,182C 163.822,185.887 162.822,189.72 161.5,193.5C 159.422,195.986 156.755,196.986 153.5,196.5C 153.192,194.076 153.526,191.743 154.5,189.5C 157.521,187.146 160.188,184.479 162.5,181.5 Z"/></g>
</svg>
